<svg width="16" height="16" viewBox="0 0 16 16" fill="none" xmlns="http://www.w3.org/2000/svg">
<path d="M4.9477 13.2341C5.49478 11.8765 6.60901 10.8335 7.99968 10.8335C9.39034 10.8335 10.5046 11.8765 11.0517 13.2341C11.226 13.6666 11.1905 14.1238 11.0199 14.4818C10.8552 14.8274 10.5117 15.1668 10.0271 15.1668H5.9722C5.48772 15.1668 5.14416 14.8274 4.97945 14.4818C4.80883 14.1238 4.77339 13.6666 4.9477 13.2341Z" fill="#BDC2CC"/>
<path d="M13.9976 4.03584C13.828 4.01227 13.5553 3.99984 13.1349 3.99984H12.3334C11.9653 3.99984 11.6667 3.70137 11.6667 3.33317C11.6667 2.96499 11.9653 2.66651 12.3334 2.66651H13.1761C13.5407 2.66645 13.8807 2.6664 14.1534 2.7043C14.4509 2.74566 14.7991 2.84753 15.0575 3.15894C15.3202 3.47533 15.3505 3.83867 15.3268 4.14033C15.3056 4.41061 15.2212 4.77713 15.1427 5.11855L14.8821 6.25129C14.4256 8.23657 12.762 9.69337 10.7655 9.9925C10.4014 10.047 10.062 9.7961 10.0075 9.43197C9.95286 9.06783 10.2039 8.72843 10.568 8.6739C12.0527 8.45143 13.2557 7.37457 13.5827 5.95248L13.8432 4.81973C13.9349 4.42112 13.9851 4.19509 13.9976 4.03584Z" fill="#BDC2CC"/>
<path d="M2.00275 4.03584C2.17231 4.01227 2.44503 3.99984 2.86544 3.99984H3.66691C4.0351 3.99984 4.33358 3.70137 4.33358 3.33317C4.33358 2.96499 4.0351 2.66651 3.66691 2.66651H2.82421C2.45962 2.66645 2.1196 2.6664 1.84691 2.7043C1.54938 2.74566 1.20129 2.84753 0.942779 3.15894C0.680145 3.47533 0.64981 3.83867 0.673525 4.14033C0.694765 4.41061 0.769545 4.7355 0.848125 5.07692L1.11819 6.25129C1.57473 8.23657 3.23832 9.69337 5.2348 9.9925C5.59892 10.047 5.93833 9.7961 5.99289 9.43197C6.04744 9.06783 5.79649 8.72843 5.43236 8.6739C3.94767 8.45143 2.74463 7.37457 2.41761 5.95248L2.15712 4.81973C2.06546 4.42112 2.01527 4.19509 2.00275 4.03584Z" fill="#BDC2CC"/>
<path d="M6.0847 0.833498H6.12467H9.91586C10.4846 0.833464 10.971 0.833438 11.3594 0.896558C11.7824 0.965298 12.1553 1.11811 12.4439 1.46794C12.7225 1.80561 12.8181 2.1845 12.8318 2.60467C12.8445 2.99238 12.7877 3.4634 12.721 4.01678C12.4608 6.17632 11.8907 8.11703 11.1093 9.4969C10.3421 10.8518 9.28399 11.8335 8.00026 11.8335C6.71659 11.8335 5.65851 10.8518 4.89128 9.4969C4.10991 8.11703 3.53977 6.17632 3.27957 4.01678C3.21287 3.4634 3.15609 2.99238 3.16878 2.60467C3.18254 2.1845 3.27813 1.80561 3.55672 1.46794C3.84534 1.11811 4.21817 0.965298 4.64117 0.896558C5.02956 0.833438 5.51595 0.833464 6.0847 0.833498Z" fill="#BDC2CC"/>
</svg>
