<svg width="16" height="16" viewBox="0 0 16 16" fill="none" xmlns="http://www.w3.org/2000/svg">
<path fill-rule="evenodd" clip-rule="evenodd" d="M8.56667 2.66659C5.35905 2.66659 2.83333 5.09428 2.83333 7.99992C2.83333 10.9056 5.35905 13.3333 8.56667 13.3333C8.8534 13.3333 9.1348 13.3137 9.40953 13.2761C9.77433 13.2261 10.1105 13.4813 10.1605 13.8461C10.2105 14.2109 9.95527 14.5471 9.59047 14.5971C9.25587 14.6429 8.914 14.6666 8.56667 14.6666C4.70504 14.6666 1.5 11.7217 1.5 7.99992C1.5 4.27815 4.70504 1.33325 8.56667 1.33325C8.914 1.33325 9.25587 1.35693 9.59047 1.40277C9.95527 1.45273 10.2105 1.78895 10.1605 2.15374C10.1105 2.51852 9.77433 2.77373 9.40953 2.72376C9.1348 2.68613 8.8534 2.66659 8.56667 2.66659Z" fill="#F58229"/>
<path d="M7.16667 8.67052C6.79847 8.67052 6.5 8.37198 6.5 8.00385C6.5 7.63565 6.79847 7.33718 7.16667 7.33718H11.5V6.94098C11.4999 6.82392 11.4998 6.68012 11.5145 6.5625L11.5148 6.56027C11.5253 6.47597 11.5732 6.09194 11.9503 5.90904C12.3282 5.72573 12.6616 5.92702 12.7337 5.97056L13.0461 6.19666C13.2966 6.39308 13.6396 6.66355 13.9003 6.91718C14.0303 7.04372 14.1645 7.18858 14.2704 7.34252C14.3645 7.47932 14.5 7.71278 14.5 7.99992C14.5 8.28705 14.3645 8.52052 14.2704 8.65732C14.1645 8.81125 14.0303 8.95612 13.9003 9.08265C13.6396 9.33632 13.2966 9.60672 13.0461 9.80318L12.7337 10.0293C12.6616 10.0728 12.3281 10.2741 11.9503 10.0908C11.5732 9.90792 11.5253 9.52385 11.5148 9.43958L11.5145 9.43732C11.4998 9.31972 11.4999 9.17592 11.5 9.05885V8.67052H7.16667Z" fill="#F58229"/>
</svg>
