<svg width="300" height="300" viewBox="0 0 300 300" fill="none" xmlns="http://www.w3.org/2000/svg">
<path d="M119.891 149.11C117.875 151.36 119.472 154.934 122.492 154.934H136.11C139.146 154.934 140.737 151.329 138.691 149.086L131.819 141.557C130.425 140.03 128.017 140.041 126.637 141.581L119.891 149.11Z" fill="#FBCB4A"/>
<path d="M184.167 165.015H192.374C193.864 165.015 195.084 163.971 195.084 162.674V152.849C195.084 151.552 193.864 150.508 192.374 150.508H184.167C182.678 150.508 181.458 151.552 181.458 152.849V162.69C181.458 163.987 182.678 165.015 184.167 165.015Z" fill="#FBCB4A"/>
<path d="M184.167 187.3H192.374C193.864 187.3 195.084 186.256 195.084 184.958V175.134C195.084 173.836 193.864 172.792 192.374 172.792H184.167C182.678 172.792 181.458 173.836 181.458 175.134V184.974C181.458 186.271 182.678 187.3 184.167 187.3Z" fill="#FBCB4A"/>
<path d="M136.11 181.49H122.492C119.472 181.49 117.875 185.065 119.891 187.315L126.637 194.843C128.017 196.383 130.425 196.394 131.819 194.867L138.691 187.338C140.737 185.096 139.146 181.49 136.11 181.49Z" fill="#FBCB4A"/>
<path d="M141.147 175.07V161.452C141.147 158.416 144.753 156.825 146.996 158.872L154.524 165.743C156.052 167.137 156.041 169.545 154.501 170.925L146.972 177.671C144.722 179.687 141.147 178.091 141.147 175.07Z" fill="#FBCB4A"/>
<path d="M117.432 161.452V175.07C117.432 178.091 113.857 179.687 111.607 177.671L104.078 170.925C102.538 169.545 102.527 167.137 104.055 165.743L111.583 158.872C113.826 156.825 117.432 158.416 117.432 161.452Z" fill="#FBCB4A"/>
<path fill-rule="evenodd" clip-rule="evenodd" d="M141.886 76.1406H158.113V111.804H177.916C177.916 111.804 181.924 111.804 185.931 113.796L223.997 129.804C228.005 131.796 230 135.798 230 139.799V203.831C230 205.841 230 207.852 228.005 209.843L215.982 221.849C213.987 223.859 212.477 223.859 209.979 223.859H90.021C87.523 223.859 86.0131 223.859 84.0184 221.849L71.9946 209.843C70 207.833 70 205.841 70 203.831V139.799C70 135.816 71.9946 131.796 76.0026 129.804L114.069 113.796C118.076 111.804 122.084 111.804 122.084 111.804H141.886V76.1406ZM88.0263 207.852C86.0317 207.852 86.0317 205.841 86.0317 205.841V129.804C86.0317 129.804 86.0317 127.812 88.0263 127.812H211.992C213.987 127.812 213.987 129.804 213.987 129.804V205.841C213.987 205.841 213.987 207.852 211.992 207.852H88.0263Z" fill="#FBCB4A"/>
</svg>
