<svg width="20" height="20" viewBox="0 0 20 20" fill="none" xmlns="http://www.w3.org/2000/svg">
<path fill-rule="evenodd" clip-rule="evenodd" d="M2.50001 5.83333C2.50001 4.91286 3.2462 4.16667 4.16668 4.16667H13.3333C13.7936 4.16667 14.1667 3.79357 14.1667 3.33333C14.1667 2.8731 13.7936 2.5 13.3333 2.5H4.16668C2.32573 2.5 0.833344 3.99238 0.833344 5.83333V15C0.833344 16.841 2.32573 18.3333 4.16668 18.3333H15.8333C17.6743 18.3333 19.1667 16.841 19.1667 15V8.33333C19.1667 7.8731 18.7936 7.5 18.3333 7.5C17.8731 7.5 17.5 7.8731 17.5 8.33333V12.2077L14.4532 8.39918C13.0439 6.63752 10.3282 6.75537 9.07681 8.63249L8.12712 10.057C6.99175 9.43387 5.55935 9.78186 4.83961 10.8714L2.50001 14.413V5.83333ZM13.1518 9.44033L17.5 14.8757V15C17.5 15.9205 16.7538 16.6667 15.8333 16.6667H7.28087C6.61529 16.6667 6.2183 15.9249 6.5875 15.3711L10.4636 9.55699C11.0893 8.61843 12.4471 8.55951 13.1518 9.44033ZM5.20075 14.4466C4.72769 15.1562 4.67393 15.9686 4.92317 16.6667H4.58334C4.1231 16.6667 3.75001 16.2936 3.75001 15.8333V15.7949C3.75001 15.6316 3.798 15.4719 3.88803 15.3356L6.23024 11.79C6.44255 11.4686 6.84091 11.3408 7.19205 11.4596L5.20075 14.4466Z" fill="#F56630"/>
<path d="M4.31918 7.3319C4.72008 7.46553 5.03467 7.78012 5.1683 8.18102C5.30431 8.58903 5.88142 8.58903 6.01743 8.18102C6.15106 7.78012 6.46565 7.46553 6.86655 7.3319C7.27456 7.19589 7.27456 6.61878 6.86655 6.48277C6.46565 6.34914 6.15106 6.03455 6.01743 5.63365C5.88142 5.22564 5.30431 5.22564 5.1683 5.63365C5.03467 6.03455 4.72008 6.34914 4.31918 6.48277C3.91117 6.61878 3.91117 7.19589 4.31918 7.3319Z" fill="#F56630"/>
<path d="M17.5 3.33333C17.5 2.8731 17.1269 2.5 16.6667 2.5C16.2064 2.5 15.8333 2.8731 15.8333 3.33333V4.16667H15C14.5398 4.16667 14.1667 4.53976 14.1667 5C14.1667 5.46024 14.5398 5.83333 15 5.83333H15.8333V6.66667C15.8333 7.1269 16.2064 7.5 16.6667 7.5C17.1269 7.5 17.5 7.1269 17.5 6.66667V5.83333H18.3333C18.7936 5.83333 19.1667 5.46024 19.1667 5C19.1667 4.53976 18.7936 4.16667 18.3333 4.16667H17.5V3.33333Z" fill="#F56630"/>
</svg>
