<svg width="16" height="16" viewBox="0 0 16 16" fill="none" xmlns="http://www.w3.org/2000/svg">
<path d="M4.94795 13.2339C5.49503 11.8763 6.60925 10.8333 7.99992 10.8333C9.39059 10.8333 10.5049 11.8763 11.0519 13.2339C11.2263 13.6664 11.1908 14.1236 11.0202 14.4816C10.8555 14.8272 10.5119 15.1666 10.0274 15.1666H5.97245C5.48796 15.1666 5.1444 14.8272 4.97969 14.4816C4.80907 14.1236 4.77363 13.6664 4.94795 13.2339Z" fill="#BFC5D4"/>
<path d="M13.9976 4.03609C13.828 4.01252 13.5553 4.00009 13.1349 4.00009H12.3334C11.9653 4.00009 11.6667 3.70161 11.6667 3.33342C11.6667 2.96523 11.9653 2.66675 12.3334 2.66675H13.1761C13.5407 2.6667 13.8807 2.66665 14.1534 2.70455C14.4509 2.74591 14.7991 2.84777 15.0575 3.15919C15.3202 3.47557 15.3505 3.83891 15.3268 4.14057C15.3056 4.41086 15.2212 4.77738 15.1427 5.1188L14.8821 6.25154C14.4256 8.23681 12.762 9.69361 10.7655 9.99275C10.4014 10.0473 10.062 9.79635 10.0075 9.43221C9.95286 9.06808 10.2039 8.72868 10.568 8.67415C12.0527 8.45168 13.2557 7.37481 13.5827 5.95273L13.8432 4.81998C13.9349 4.42137 13.9851 4.19533 13.9976 4.03609Z" fill="#BFC5D4"/>
<path d="M2.00251 4.03609C2.17206 4.01252 2.44478 4.00009 2.86519 4.00009H3.66667C4.03486 4.00009 4.33333 3.70161 4.33333 3.33342C4.33333 2.96523 4.03486 2.66675 3.66667 2.66675H2.82397C2.45937 2.6667 2.11935 2.66665 1.84666 2.70455C1.54913 2.74591 1.20104 2.84777 0.942535 3.15919C0.679901 3.47557 0.649566 3.83891 0.673281 4.14057C0.694521 4.41086 0.769301 4.73575 0.847881 5.07717L1.11795 6.25154C1.57448 8.23681 3.23807 9.69361 5.23455 9.99275C5.59868 10.0473 5.93809 9.79635 5.99265 9.43221C6.0472 9.06808 5.79625 8.72868 5.43212 8.67415C3.94743 8.45168 2.74439 7.37481 2.41736 5.95273L2.15687 4.81998C2.06521 4.42137 2.01503 4.19533 2.00251 4.03609Z" fill="#BFC5D4"/>
<path d="M6.08446 0.833253H6.12443H9.91562C10.4843 0.83322 10.9707 0.833193 11.3591 0.896313C11.7821 0.965053 12.155 1.11787 12.4436 1.4677C12.7222 1.80537 12.8178 2.18425 12.8315 2.60443C12.8442 2.99213 12.7875 3.46316 12.7207 4.01654C12.4605 6.17607 11.8904 8.11679 11.1091 9.49665C10.3418 10.8516 9.28375 11.8333 8.00002 11.8333C6.71635 11.8333 5.65827 10.8516 4.89104 9.49665C4.10967 8.11679 3.53953 6.17608 3.27933 4.01654C3.21262 3.46316 3.15584 2.99213 3.16854 2.60443C3.1823 2.18425 3.27789 1.80537 3.55648 1.4677C3.8451 1.11787 4.21792 0.965053 4.64092 0.896313C5.02932 0.833193 5.51571 0.83322 6.08446 0.833253Z" fill="#BFC5D4"/>
</svg>
