<svg width="16" height="16" viewBox="0 0 16 16" fill="none" xmlns="http://www.w3.org/2000/svg">
<path fill-rule="evenodd" clip-rule="evenodd" d="M11.5414 1.28714C10.6458 1.16673 9.49868 1.16674 8.03822 1.16675H7.96195C6.50149 1.16674 5.35437 1.16673 4.45876 1.28714C3.54099 1.41053 2.81282 1.66855 2.24069 2.24069C1.66855 2.81282 1.41053 3.54099 1.28714 4.45876C1.16673 5.35437 1.16674 6.50149 1.16675 7.96195V8.03822C1.16674 9.49868 1.16673 10.6458 1.28714 11.5414C1.41053 12.4591 1.66855 13.1873 2.24069 13.7595C2.81282 14.3316 3.54099 14.5896 4.45876 14.713C5.35437 14.8334 6.50148 14.8334 7.96195 14.8334H8.03822C9.49868 14.8334 10.6458 14.8334 11.5414 14.713C12.4591 14.5896 13.1873 14.3316 13.7595 13.7595C14.3316 13.1873 14.5896 12.4591 14.713 11.5414C14.8334 10.6458 14.8334 9.49868 14.8334 8.03822V7.96195C14.8334 6.50148 14.8334 5.35437 14.713 4.45876C14.5896 3.54099 14.3316 2.81282 13.7595 2.24069C13.1873 1.66855 12.4591 1.41053 11.5414 1.28714ZM5.16675 8.66675C5.16675 8.39061 4.94289 8.16675 4.66675 8.16675C4.39061 8.16675 4.16675 8.39061 4.16675 8.66675V11.3334C4.16675 11.6095 4.39061 11.8334 4.66675 11.8334C4.94289 11.8334 5.16675 11.6095 5.16675 11.3334V8.66675ZM8.00008 4.16675C8.27622 4.16675 8.50008 4.39061 8.50008 4.66675V11.3334C8.50008 11.6095 8.27622 11.8334 8.00008 11.8334C7.72395 11.8334 7.50008 11.6095 7.50008 11.3334V4.66675C7.50008 4.39061 7.72395 4.16675 8.00008 4.16675ZM11.8334 7.33342C11.8334 7.05728 11.6095 6.83342 11.3334 6.83342C11.0573 6.83342 10.8334 7.05728 10.8334 7.33342V11.3334C10.8334 11.6095 11.0573 11.8334 11.3334 11.8334C11.6095 11.8334 11.8334 11.6095 11.8334 11.3334V7.33342Z" fill="#BFC5D4"/>
</svg>
