<svg width="24" height="24" viewBox="0 0 24 24" fill="none" xmlns="http://www.w3.org/2000/svg">
<g clip-path="url(#clip0_1492_13)">
<path d="M15.5252 1.98665C15.5616 2.04829 15.5134 2.12449 15.4419 2.12449C13.9926 2.12449 12.8144 3.27195 12.7867 4.69781C12.2905 4.60515 11.7763 4.59819 11.2683 4.68378C11.2332 3.26443 10.058 2.12449 8.61343 2.12449C8.54182 2.12449 8.49363 2.04824 8.53001 1.98655C9.23158 0.798384 10.5353 0 12.0276 0C13.5199 0 14.8236 0.798427 15.5252 1.98665Z" fill="white"/>
<path d="M20.1003 10.891C20.4658 11.0017 20.8119 10.6809 20.6897 10.3191C19.4163 6.54734 15.1937 5.00928 12.0076 5.00928C8.81635 5.00928 4.49948 6.59616 3.32665 10.336C3.21396 10.6954 3.55903 11.0053 3.9191 10.895L11.724 8.50334C11.8833 8.45453 12.0536 8.45424 12.2131 8.50257L20.1003 10.891Z" fill="white"/>
<path d="M3.34641 11.4925L11.7298 8.94992C11.8881 8.90192 12.0572 8.90178 12.2156 8.94954L20.6512 11.4937C21.3485 11.704 21.8257 12.3464 21.8257 13.0748V20.6631C21.7934 22.5154 20.1294 24 18.2777 24H15.2022C14.8982 24 14.652 23.7541 14.652 23.4501V20.7896C14.652 19.7419 15.272 18.7937 16.2315 18.374C17.5176 17.8114 19.039 17.0505 19.3252 15.5235C19.4176 15.0307 19.0962 14.5553 18.6046 14.4575C17.3616 14.2105 15.9835 14.3059 14.8181 14.8271C13.4952 15.4188 13.1491 16.4031 13.021 17.725L12.8657 19.1491C12.8183 19.5843 12.4102 19.9177 11.9726 19.9177C11.5199 19.9177 11.1805 19.5729 11.1314 19.1227L10.979 17.725C10.8692 16.5927 10.6703 15.4928 9.49979 14.9693C8.16458 14.3721 6.82278 14.1738 5.39541 14.4575C4.90379 14.5553 4.58243 15.0307 4.6748 15.5235C4.96346 17.0638 6.47301 17.8073 7.76853 18.374C8.728 18.7937 9.34802 19.7419 9.34802 20.7896V23.4496C9.34802 23.7536 9.10187 24 8.79789 24H5.72229C3.87061 24 2.20665 22.5154 2.17432 20.6631V13.0728C2.17432 12.3453 2.6503 11.7036 3.34641 11.4925Z" fill="white"/>
</g>
<defs>
<clipPath id="clip0_1492_13">
<rect width="24" height="24" fill="white"/>
</clipPath>
</defs>
</svg>
