<svg width="29" height="28" viewBox="0 0 29 28" fill="none" xmlns="http://www.w3.org/2000/svg">
    <rect x="1" y="1" width="27" height="26" rx="13" fill="#E48D32"/>
    <rect x="1" y="1" width="27" height="26" rx="13" stroke="#F0AB4C" stroke-width="2"/>
    <path fill-rule="evenodd" clip-rule="evenodd" d="M12 8C11.6318 8 11.3333 8.29848 11.3333 8.66667V19.3333C11.3333 19.7015 11.6318 20 12 20C12.3682 20 12.6667 19.7015 12.6667 19.3333V8.66667C12.6667 8.29848 12.3682 8 12 8ZM17 8C16.6318 8 16.3333 8.29848 16.3333 8.66667V19.3333C16.3333 19.7015 16.6318 20 17 20C17.3682 20 17.6667 19.7015 17.6667 19.3333V8.66667C17.6667 8.29848 17.3682 8 17 8Z" fill="#FCE3AA"/>
    </svg>
    