<svg width="29" height="28" viewBox="0 0 29 28" fill="none" xmlns="http://www.w3.org/2000/svg">
<rect x="1" y="1" width="27" height="26" rx="13" fill="#E48D32"/>
<rect x="1" y="1" width="27" height="26" rx="13" stroke="#F0AB4C" stroke-width="2"/>
<path fill-rule="evenodd" clip-rule="evenodd" d="M14.9033 10.5945L14.9628 10.6328C15.8406 11.1971 16.5382 11.6455 17.0338 12.0558C17.5381 12.4732 17.9101 12.9114 18.0296 13.4802C18.1015 13.8228 18.1015 14.1774 18.0296 14.52C17.9101 15.0888 17.5381 15.527 17.0338 15.9444C16.5382 16.3546 15.8406 16.8031 14.9629 17.3674L14.9033 17.4056C13.9476 18.02 13.1907 18.5067 12.5731 18.805C11.9517 19.1053 11.361 19.2719 10.7776 19.0935C10.4336 18.9883 10.1185 18.8038 9.85526 18.5556C9.41475 18.1401 9.24391 17.5432 9.16357 16.838C9.08348 16.1352 9.08349 15.2092 9.0835 14.034V13.9662C9.08349 12.791 9.08348 11.8649 9.16357 11.1621C9.24391 10.457 9.41475 9.86009 9.85526 9.44459C10.1185 9.19631 10.4336 9.01187 10.7776 8.90665C11.361 8.72828 11.9517 8.89489 12.5731 9.19512C13.1907 9.49349 13.9476 9.9801 14.9033 10.5945Z" fill="#FCE3AA"/>
<path fill-rule="evenodd" clip-rule="evenodd" d="M20.2502 8C19.882 8 19.5835 8.29848 19.5835 8.66667V19.3333C19.5835 19.7015 19.882 20 20.2502 20C20.6184 20 20.9168 19.7015 20.9168 19.3333V8.66667C20.9168 8.29848 20.6184 8 20.2502 8Z" fill="#FCE3AA"/>
</svg>
