<svg width="29" height="28" viewBox="0 0 29 28" fill="none" xmlns="http://www.w3.org/2000/svg">
<rect x="1" y="1" width="27" height="26" rx="13" fill="#E48D32"/>
<rect x="1" y="1" width="27" height="26" rx="13" stroke="#F0AB4C" stroke-width="2"/>
<path fill-rule="evenodd" clip-rule="evenodd" d="M15.0967 10.5945L15.0372 10.6328C14.1594 11.1971 13.4618 11.6455 12.9662 12.0558C12.4619 12.4732 12.0899 12.9114 11.9704 13.4802C11.8985 13.8228 11.8985 14.1774 11.9704 14.52C12.0899 15.0888 12.4619 15.527 12.9662 15.9444C13.4618 16.3546 14.1594 16.8031 15.0371 17.3674L15.0967 17.4056C16.0524 18.02 16.8093 18.5067 17.4269 18.805C18.0483 19.1053 18.639 19.2719 19.2224 19.0935C19.5664 18.9883 19.8815 18.8038 20.1447 18.5556C20.5852 18.1401 20.7561 17.5432 20.8364 16.838C20.9165 16.1352 20.9165 15.2092 20.9165 14.034V13.9662C20.9165 12.791 20.9165 11.8649 20.8364 11.1621C20.7561 10.457 20.5852 9.86009 20.1447 9.44459C19.8815 9.19631 19.5664 9.01187 19.2224 8.90665C18.639 8.72828 18.0483 8.89489 17.4269 9.19512C16.8093 9.49349 16.0524 9.9801 15.0967 10.5945Z" fill="#FCE3AA"/>
<path fill-rule="evenodd" clip-rule="evenodd" d="M9.75016 8C10.1183 8 10.4168 8.29848 10.4168 8.66667V19.3333C10.4168 19.7015 10.1183 20 9.75016 20C9.38197 20 9.0835 19.7015 9.0835 19.3333V8.66667C9.0835 8.29848 9.38198 8 9.75016 8Z" fill="#FCE3AA"/>
</svg>
