<svg width="29" height="28" viewBox="0 0 29 28" fill="none" xmlns="http://www.w3.org/2000/svg">
    <rect x="1" y="1" width="27" height="26" rx="13" fill="#E48D32"/>
    <rect x="1" y="1" width="27" height="26" rx="13" stroke="#F0AB4C" stroke-width="2"/>
    <path fill-rule="evenodd" clip-rule="evenodd" d="M14.9 10.6L14.96 10.63C15.84 11.2 16.54 11.65 17.03 12.06C17.54 12.47 17.91 12.91 18.03 13.48C18.1 13.82 18.1 14.18 18.03 14.52C17.91 15.09 17.54 15.53 17.03 15.94C16.54 16.35 15.84 16.8 14.96 17.37L14.9 17.41C13.95 18.02 13.19 18.51 12.57 18.81C11.95 19.11 11.36 19.27 10.78 19.09C10.43 18.99 10.12 18.8 9.86 18.56C9.41 18.14 9.24 17.54 9.16 16.84C9.08 16.14 9.08 15.21 9.08 14.03V13.97C9.08 12.79 9.08 11.86 9.16 11.16C9.24 10.46 9.41 9.86 9.86 9.44C10.12 9.2 10.43 9.01 10.78 8.91C11.36 8.73 11.95 8.89 12.57 9.2C13.19 9.49 13.95 9.98 14.9 10.6Z" fill="#FCE3AA" transform="translate(1 0) scale(0.8) translate(3.5 3)"/>
  </svg>
  