<svg width="16" height="16" viewBox="0 0 16 16" fill="none" xmlns="http://www.w3.org/2000/svg">
<path fill-rule="evenodd" clip-rule="evenodd" d="M7.99992 0.833252C4.04188 0.833252 0.833252 4.04188 0.833252 7.99992C0.833252 11.958 4.04188 15.1666 7.99992 15.1666C11.958 15.1666 15.1666 11.958 15.1666 7.99992C15.1666 4.04188 11.958 0.833252 7.99992 0.833252ZM7.99425 4.16658C6.79698 4.16658 5.82523 5.13596 5.82523 6.33325C5.82523 7.53052 6.79698 8.49992 7.99425 8.49992C9.19152 8.49992 10.1633 7.53052 10.1633 6.33325C10.1633 5.13596 9.19152 4.16658 7.99425 4.16658ZM7.99992 9.49992C6.56936 9.49992 5.26974 10.061 4.3203 10.9726C4.2221 11.0669 4.16658 11.1971 4.16658 11.3333C4.16658 11.4694 4.2221 11.5997 4.3203 11.6939C5.26974 12.6055 6.56936 13.1666 7.99992 13.1666C9.43045 13.1666 10.7301 12.6055 11.6795 11.6939C11.7777 11.5997 11.8333 11.4694 11.8333 11.3333C11.8333 11.1971 11.7777 11.0669 11.6795 10.9726C10.7301 10.061 9.43045 9.49992 7.99992 9.49992Z" fill="#BFC5D4"/>
</svg>
