<svg width="90" height="80" viewBox="0 0 90 80" fill="none" xmlns="http://www.w3.org/2000/svg">
<path d="M64.1312 4.82613e-06C51.3765 5.38366e-06 38.6227 5.94114e-06 25.8688 6.49863e-06C23.4671 6.60361e-06 20.9587 0.717841 19.3326 2.27529C10.9202 12.7703 3.15465 22.9743 0.436872 36.5883C-0.145626 38.75 -0.145626 41.25 0.436872 43.4117C3.15547 57.0265 10.9202 67.2305 19.3326 77.7247C20.9587 79.2822 23.4671 80 25.8688 80C38.6235 80 51.3773 80 64.1312 80C66.5329 80 69.0413 79.2822 70.6674 77.7247C79.0798 67.2297 86.8445 57.0257 89.5631 43.4117C90.1456 41.25 90.1456 38.75 89.5631 36.5883C86.8445 22.9735 79.0798 12.7695 70.6674 2.27529C69.0413 0.717839 66.5329 4.72115e-06 64.1312 4.82613e-06Z" fill="url(#paint0_linear_1141_16889)"/>
<path d="M28.4133 6L61.5775 6C61.8279 6 62.0784 6.01204 62.3288 6.02327C64.1772 6.15252 66.002 6.76265 67.2419 7.93635C74.528 16.8563 81.2659 25.529 83.6152 37.1014C84.1283 38.9326 84.1283 41.0569 83.6152 42.8993C81.2659 54.4709 74.528 63.1444 67.2419 72.0636C65.8348 73.3898 63.6641 74 61.5775 74L28.4133 74C26.3381 74 24.156 73.3898 22.7489 72.0636C15.4628 63.1436 8.73717 54.4709 6.37564 42.8993C5.87478 41.0569 5.87478 38.9326 6.37564 37.1014C8.73717 25.5298 15.4628 16.8563 22.7489 7.93635C24.156 6.61012 26.3389 6 28.4133 6Z" fill="url(#paint1_linear_1141_16889)"/>
<defs>
<linearGradient id="paint0_linear_1141_16889" x1="90.0006" y1="40.0003" x2="-0.0006133" y2="40.0003" gradientUnits="userSpaceOnUse">
<stop stop-color="#FF5400"/>
<stop offset="0.505" stop-color="#ED8C00"/>
<stop offset="1" stop-color="#FFE500"/>
</linearGradient>
<linearGradient id="paint1_linear_1141_16889" x1="84.0001" y1="40.0002" x2="6.00008" y2="40.0002" gradientUnits="userSpaceOnUse">
<stop stop-color="#FFC200"/>
<stop offset="0.5" stop-color="#F19000"/>
<stop offset="1" stop-color="#FF6D04"/>
</linearGradient>
</defs>
</svg>
